<svg id="Layer_1" data-name="Layer 1" xmlns="http://www.w3.org/2000/svg" viewBox="0 0 841.89 595.28"><defs><style>.cls-1,.cls-2{fill:#fff;}.cls-2{opacity:0.98;isolation:isolate;}</style></defs><title>Incasu_Logo_White_Inline</title><path id="path9775-8-2-5" class="cls-1" d="M283.28,267.88H289v56.8h-5.67Z"/><path id="path9777-9-4-8" class="cls-1" d="M333.08,324.68v-56.8h1.24l37.77,43.48V267.88h5.6v56.8h-1.28L339,281.74v42.94Z"/><path id="path9779-2-9-8" class="cls-1" d="M475.54,278.42l-4.48,3.44a24.3,24.3,0,0,0-8.92-7.3,25.82,25.82,0,0,0-11.4-2.51,25.11,25.11,0,0,0-12.59,3.28,23.33,23.33,0,0,0-9,8.77A24.25,24.25,0,0,0,426,296.46a23.24,23.24,0,0,0,7.11,17.33q7.14,7,18,7a25.29,25.29,0,0,0,20-9.35l4.48,3.4a28.92,28.92,0,0,1-10.62,8.38,33.31,33.31,0,0,1-14.18,2.93q-14.89,0-23.51-9.92A29.93,29.93,0,0,1,420,296a28.12,28.12,0,0,1,8.73-21q8.77-8.53,21.94-8.53A31.85,31.85,0,0,1,465,269.62a27.68,27.68,0,0,1,10.51,8.8Z"/><path id="path9781-5-8-7" class="cls-1" d="M541.14,267.88l26.49,56.8h-6.1L552.61,306H528.12l-8.88,18.69h-6.33l26.84-56.8Zm-.7,12.05-9.77,20.58H550.1Z"/><path id="path9783-8-9-8" class="cls-1" d="M601.64,314.1l4.83-2.89q5.1,9.38,11.78,9.38a11.52,11.52,0,0,0,5.37-1.31,9.55,9.55,0,0,0,3.82-3.59,9.22,9.22,0,0,0,1.31-4.75,9.61,9.61,0,0,0-1.93-5.6q-2.66-3.79-9.73-9.12t-8.84-7.76a14.18,14.18,0,0,1-3-8.69A13.25,13.25,0,0,1,607,273a12.59,12.59,0,0,1,5-4.78,14.37,14.37,0,0,1,7-1.78,14.68,14.68,0,0,1,7.49,2q3.53,2,7.42,7.3l-4.64,3.51a21.9,21.9,0,0,0-5.48-5.6,9.32,9.32,0,0,0-4.9-1.35,7.86,7.86,0,0,0-5.64,2.08,6.87,6.87,0,0,0-2.16,5.14,8.65,8.65,0,0,0,.77,3.59,13.13,13.13,0,0,0,2.82,3.79q1.11,1.08,7.33,5.67,7.38,5.45,10.12,9.7a15.58,15.58,0,0,1,2.74,8.53,14.47,14.47,0,0,1-4.71,10.74,15.72,15.72,0,0,1-11.39,4.55,16.78,16.78,0,0,1-9.38-2.74q-4.21-2.78-7.77-9.27Z"/><path id="path9785-7-4-1" class="cls-1" d="M678.14,267.88h5.67v34.29a68.61,68.61,0,0,0,.24,7.61,12.72,12.72,0,0,0,2,5.64,11.82,11.82,0,0,0,4.75,3.78,14.91,14.91,0,0,0,6.44,1.51,12.7,12.7,0,0,0,5.41-1.2,12.1,12.1,0,0,0,4.33-3.32,13.69,13.69,0,0,0,2.54-5.14,42.18,42.18,0,0,0,.58-8.88V267.88h5.68v34.29a41.26,41.26,0,0,1-1.51,12.32,16.59,16.59,0,0,1-5.94,8.15,16.93,16.93,0,0,1-10.78,3.47,20.68,20.68,0,0,1-11.78-3.28,15.85,15.85,0,0,1-6.56-8.69q-1-3.31-1-12Z"/><path id="path969-76-8-0-4-3-1-6-1" class="cls-2" d="M128.7,320.33l21.63-21.63a1.49,1.49,0,0,0,0-2.12L128.7,275a1.5,1.5,0,0,0-2.56,1.06v43.26A1.5,1.5,0,0,0,128.7,320.33Z"/><path id="path971-7-2-8-2-6-55-1-5" class="cls-2" d="M207.75,320.33,186.12,298.7a1.51,1.51,0,0,1,0-2.12L207.75,275a1.5,1.5,0,0,1,2.56,1.06v43.26A1.5,1.5,0,0,1,207.75,320.33Z"/><path id="path973-2-5-9-7-0-4-3-4" class="cls-2" d="M145.53,258.11l21.64,21.63a1.49,1.49,0,0,0,2.12,0l21.63-21.63a1.5,1.5,0,0,0-1.06-2.56H146.6A1.5,1.5,0,0,0,145.53,258.11Z"/><path id="path975-7-6-9-7-9-951-3-0" class="cls-2" d="M145.53,337.16l21.64-21.63a1.51,1.51,0,0,1,2.12,0l21.63,21.63a1.51,1.51,0,0,1-1.06,2.57H146.6A1.51,1.51,0,0,1,145.53,337.16Z"/></svg>