<svg id="Layer_1" data-name="Layer 1" xmlns="http://www.w3.org/2000/svg" viewBox="0 0 841.89 595.28"><defs><style>.cls-1{fill:#700f11;}.cls-1,.cls-2,.cls-3,.cls-4{opacity:0.98;isolation:isolate;}.cls-2{fill:#df1f26;}.cls-3{fill:#f26b6b;}.cls-4{fill:#57362c;}.cls-5{fill:#fff;}</style></defs><title>Incasu_Logo_Color_Stacked_White</title><path id="path969-76-8-0-4-3-1-6-1" class="cls-1" d="M381.63,254.14l21.63-21.63a1.49,1.49,0,0,0,0-2.12l-21.63-21.63a1.5,1.5,0,0,0-2.56,1.06v43.26A1.5,1.5,0,0,0,381.63,254.14Z"/><path id="path971-7-2-8-2-6-55-1-5" class="cls-2" d="M460.68,254.14l-21.63-21.63a1.51,1.51,0,0,1,0-2.12l21.63-21.63a1.5,1.5,0,0,1,2.57,1.06v43.26A1.51,1.51,0,0,1,460.68,254.14Z"/><path id="path973-2-5-9-7-0-4-3-4" class="cls-3" d="M398.47,191.92l21.63,21.63a1.49,1.49,0,0,0,2.12,0l21.63-21.63a1.5,1.5,0,0,0-1.06-2.56H399.53A1.5,1.5,0,0,0,398.47,191.92Z"/><path id="path975-7-6-9-7-9-951-3-0" class="cls-4" d="M398.47,271l21.63-21.63a1.51,1.51,0,0,1,2.12,0L443.85,271a1.51,1.51,0,0,1-1.06,2.57H399.53A1.5,1.5,0,0,1,398.47,271Z"/><path id="path9775-8-2-5" class="cls-5" d="M204.71,347.68h5.67v56.81h-5.67Z"/><path id="path9777-9-4-8" class="cls-5" d="M254.52,404.49V347.68h1.23l37.77,43.48V347.68h5.6v56.81h-1.28l-37.45-42.95v42.95Z"/><path id="path9779-2-9-8" class="cls-5" d="M397,358.22l-4.48,3.44a24.3,24.3,0,0,0-8.92-7.3,25.81,25.81,0,0,0-11.39-2.51,25.06,25.06,0,0,0-12.59,3.28,23.36,23.36,0,0,0-9,8.77,24.25,24.25,0,0,0-3.17,12.36,23.28,23.28,0,0,0,7.11,17.34q7.14,6.94,18,6.95a25.29,25.29,0,0,0,20-9.35l4.48,3.4A28.66,28.66,0,0,1,386.35,403a33.28,33.28,0,0,1-14.18,2.94q-14.9,0-23.51-9.93a29.92,29.92,0,0,1-7.22-20.23,28.08,28.08,0,0,1,8.72-21q8.77-8.54,21.94-8.54a32,32,0,0,1,14.36,3.17,27.68,27.68,0,0,1,10.51,8.8Z"/><path id="path9781-5-8-7" class="cls-5" d="M462.57,347.68l26.49,56.81H483L474,385.8H449.56l-8.89,18.69h-6.33l26.84-56.81Zm-.69,12.05-9.78,20.58h19.43Z"/><path id="path9783-8-9-8" class="cls-5" d="M523.08,393.91l4.82-2.9q5.1,9.39,11.78,9.38a11.34,11.34,0,0,0,5.37-1.31,9.55,9.55,0,0,0,3.82-3.59,9.21,9.21,0,0,0,1.32-4.75,9.62,9.62,0,0,0-1.94-5.6q-2.65-3.78-9.73-9.12t-8.84-7.76a14.15,14.15,0,0,1-3-8.69,13.19,13.19,0,0,1,1.77-6.75,12.58,12.58,0,0,1,5-4.79,14.31,14.31,0,0,1,7-1.78,14.74,14.74,0,0,1,7.5,2q3.51,2,7.41,7.3l-4.63,3.51a22.07,22.07,0,0,0-5.49-5.6,9.32,9.32,0,0,0-4.9-1.35,7.88,7.88,0,0,0-5.64,2.09,6.85,6.85,0,0,0-2.16,5.13,8.65,8.65,0,0,0,.77,3.59,13.13,13.13,0,0,0,2.82,3.79q1.11,1.08,7.34,5.67,7.37,5.44,10.11,9.7a15.59,15.59,0,0,1,2.75,8.53,14.48,14.48,0,0,1-4.72,10.74,15.68,15.68,0,0,1-11.39,4.55,16.78,16.78,0,0,1-9.38-2.74q-4.22-2.78-7.76-9.26Z"/><path id="path9785-7-4-1" class="cls-5" d="M599.57,347.68h5.68V382a69.56,69.56,0,0,0,.23,7.61,12.72,12.72,0,0,0,2,5.64A11.82,11.82,0,0,0,612.2,399a14.92,14.92,0,0,0,6.45,1.51,12.66,12.66,0,0,0,5.4-1.2,12,12,0,0,0,4.33-3.32,13.56,13.56,0,0,0,2.55-5.14,42.91,42.91,0,0,0,.58-8.88V347.68h5.67V382a41.62,41.62,0,0,1-1.5,12.32,16.57,16.57,0,0,1-5.95,8.15A16.93,16.93,0,0,1,619,405.92a20.65,20.65,0,0,1-11.77-3.29,15.82,15.82,0,0,1-6.57-8.69q-1-3.31-1-12Z"/></svg>